<?xml version="1.0" standalone="no"?>
<!DOCTYPE svg PUBLIC "-//W3C//DTD SVG 20010904//EN"
 "http://www.w3.org/TR/2001/REC-SVG-20010904/DTD/svg10.dtd">
<svg version="1.0" xmlns="http://www.w3.org/2000/svg"
 width="300.000000pt" height="300.000000pt" viewBox="0 0 300.000000 300.000000"
 preserveAspectRatio="xMidYMid meet">
<metadata>
Created by potrace 1.11, written by Peter Selinger 2001-2013
</metadata>
<g transform="translate(0.000000,300.000000) scale(0.100000,-0.100000)"
fill="#000000" stroke="none">
<path d="M874 2796 c-60 -21 -104 -60 -132 -116 -26 -54 -27 -59 -30 -265 -1
-115 -7 -227 -13 -248 -10 -39 -45 -69 -82 -71 -21 -1 -22 -6 -25 -103 -2 -89
0 -103 13 -103 26 0 73 -29 87 -53 9 -15 15 -92 18 -252 5 -212 8 -234 28
-276 49 -99 121 -135 277 -137 l95 -2 0 98 0 98 -61 1 c-103 2 -103 1 -109
266 -6 241 -9 255 -67 308 -15 14 -43 32 -62 39 l-34 14 29 10 c52 19 74 36
102 79 27 42 27 44 33 262 3 121 9 228 13 237 10 22 39 32 101 33 l50 1 3 97
3 98 -103 -2 c-57 -1 -117 -7 -134 -13z"/>
<path d="M1902 2715 l3 -98 56 -1 c100 -2 109 -26 109 -285 0 -167 2 -189 21
-228 23 -48 68 -88 113 -99 28 -7 28 -7 -23 -31 -41 -20 -58 -36 -81 -76 l-30
-52 0 -190 c0 -190 -8 -253 -34 -274 -8 -7 -42 -12 -75 -13 l-61 -2 0 -99 0
-99 108 5 c153 6 219 41 262 139 26 59 28 83 29 309 1 176 2 188 24 220 15 23
35 37 60 43 l37 10 0 103 c0 64 -4 102 -10 98 -17 -11 -78 23 -93 52 -11 21
-16 82 -19 253 -5 242 -9 265 -64 329 -48 58 -96 75 -222 79 l-113 4 3 -97z"/>
<path d="M1473 2198 c-21 -40 -41 -81 -45 -90 -4 -9 -24 -20 -45 -24 -21 -4
-46 -8 -55 -10 -10 -1 -18 3 -18 9 0 9 -2 9 -8 0 -4 -7 -25 -14 -47 -17 -22
-2 -42 -5 -44 -5 -2 -1 3 -9 12 -19 10 -10 14 -22 10 -27 -5 -4 -3 -6 2 -2 6
3 36 -20 67 -51 l57 -57 -10 -50 c-6 -27 -12 -71 -15 -97 -5 -55 -11 -55 103
4 71 36 105 49 73 27 -12 -8 -12 -9 5 -8 26 4 168 -65 158 -76 -5 -4 -2 -5 4
-1 14 8 13 102 -2 125 -6 10 -4 12 6 6 11 -6 12 -5 2 6 -19 19 -16 67 6 95 10
13 21 20 25 17 3 -3 6 -1 6 5 0 17 59 74 70 67 6 -3 7 1 4 9 -3 9 -1 16 5 16
25 0 9 16 -16 17 -42 1 -175 20 -179 26 -1 1 -22 42 -47 90 l-46 89 -38 -74z"/>
<path d="M1350 2106 c0 -2 7 -7 16 -10 8 -3 12 -2 9 4 -6 10 -25 14 -25 6z"/>
<path d="M1293 1935 c0 -8 4 -12 9 -9 5 3 6 10 3 15 -9 13 -12 11 -12 -6z"/>
<path d="M1750 1859 c0 -5 5 -7 10 -4 6 3 10 8 10 11 0 2 -4 4 -10 4 -5 0 -10
-5 -10 -11z"/>
<path d="M1493 1753 c0 -9 4 -10 14 -2 7 6 13 12 13 14 0 1 -6 2 -13 2 -8 0
-14 -6 -14 -14z"/>
<path d="M0 890 c0 -4 7 -24 15 -44 27 -65 86 -106 151 -106 18 0 1 46 -29 79
-40 43 -137 94 -137 71z"/>
<path d="M2934 874 c-48 -24 -100 -78 -106 -111 -4 -25 32 -29 73 -7 48 25 64
44 89 108 8 22 7 26 -8 26 -9 0 -31 -7 -48 -16z"/>
<path d="M2752 795 c-26 -30 -39 -54 -40 -75 -1 -27 2 -30 20 -24 26 8 51 31
67 61 13 26 15 83 2 83 -5 0 -27 -20 -49 -45z"/>
<path d="M185 820 c-4 -6 -1 -25 5 -44 20 -61 102 -115 95 -63 -5 40 -23 74
-51 96 -30 23 -40 26 -49 11z"/>
<path d="M2641 759 c-42 -25 -55 -38 -65 -64 -13 -31 -25 -85 -19 -85 3 0 23
10 45 22 48 27 80 77 76 118 l-3 30 -34 -21z"/>
<path d="M317 758 c-6 -18 12 -69 32 -92 9 -10 33 -27 54 -37 l37 -19 0 21 c0
34 -31 88 -65 115 -36 27 -51 30 -58 12z"/>
<path d="M123 699 c-35 -13 -34 -25 5 -46 37 -20 79 -24 120 -9 31 11 28 21
-15 41 -43 21 -80 25 -110 14z"/>
<path d="M467 702 c-8 -11 19 -81 40 -104 24 -27 90 -60 97 -49 8 12 -15 73
-39 103 -12 14 -35 33 -52 42 -36 18 -40 19 -46 8z"/>
<path d="M2486 695 c-16 -9 -40 -28 -53 -43 -25 -29 -50 -98 -40 -108 11 -12
95 46 116 80 20 32 29 86 14 86 -5 0 -21 -7 -37 -15z"/>
<path d="M2810 703 c-8 -2 -32 -11 -53 -20 -36 -16 -37 -16 -16 -31 31 -21 72
-24 113 -7 39 16 53 32 40 45 -11 11 -64 20 -84 13z"/>
<path d="M647 644 c-9 -9 2 -54 20 -81 32 -49 143 -101 143 -68 0 26 -39 94
-63 109 -33 22 -94 46 -100 40z"/>
<path d="M2294 626 c-55 -26 -91 -66 -100 -115 -6 -27 -4 -30 14 -26 63 12
119 59 141 118 16 42 0 48 -55 23z"/>
<path d="M247 596 l-32 -19 40 -18 c22 -10 50 -19 63 -19 30 0 84 23 100 43
12 14 8 17 -27 27 -55 15 -106 10 -144 -14z"/>
<path d="M2603 609 c-39 -11 -39 -12 -12 -38 29 -26 88 -35 138 -20 50 15 52
31 7 53 -37 18 -83 19 -133 5z"/>
<path d="M850 554 c0 -30 35 -75 75 -98 46 -27 102 -40 110 -26 8 13 -18 60
-47 86 -53 49 -138 72 -138 38z"/>
<path d="M2075 557 c-57 -23 -99 -64 -110 -109 -8 -29 -8 -29 60 -12 63 16
125 77 125 123 0 14 -36 13 -75 -2z"/>
<path d="M434 535 c-41 -17 -50 -33 -28 -50 44 -32 123 -27 169 10 l29 22 -23
12 c-33 18 -112 21 -147 6z"/>
<path d="M1054 536 c-12 -32 34 -97 90 -124 l39 -19 -39 -7 c-53 -10 -87 -30
-119 -68 -25 -30 -26 -33 -9 -39 34 -12 122 -3 150 16 15 10 38 31 51 46 22
25 29 28 71 24 80 -8 152 -24 152 -35 0 -4 -10 -10 -22 -14 -13 -3 -45 -25
-72 -49 -38 -33 -48 -48 -42 -62 6 -16 11 -14 49 22 45 43 107 88 107 78 0 -3
9 -1 19 4 27 15 103 -21 163 -76 40 -38 49 -43 54 -29 9 22 -36 69 -100 106
l-48 28 30 7 c31 6 59 10 142 20 42 5 47 3 63 -24 32 -55 145 -89 199 -60 20
11 19 11 -8 41 -27 27 -103 70 -121 67 -33 -5 -31 5 5 24 45 24 92 83 92 116
0 16 -5 19 -26 15 -65 -12 -138 -73 -149 -126 -4 -15 -12 -28 -18 -29 -81 -4
-174 -17 -212 -27 -32 -9 -64 -9 -105 2 -38 11 -80 16 -143 21 -66 4 -66 4
-72 34 -9 47 -72 103 -136 121 -22 6 -31 5 -35 -4z"/>
<path d="M2430 533 c-32 -13 -32 -14 -15 -32 34 -39 102 -47 166 -21 35 15 33
30 -6 49 -40 19 -106 21 -145 4z"/>
<path d="M679 480 c-40 -7 -100 -39 -106 -56 -5 -16 51 -34 106 -34 37 0 54 7
89 34 23 19 39 37 34 40 -21 13 -90 22 -123 16z"/>
<path d="M2225 475 l-39 -12 32 -31 c27 -27 67 -42 117 -44 21 -1 76 15 81 24
9 14 -25 46 -60 57 -52 16 -89 18 -131 6z"/>
<path d="M875 409 c-31 -8 -75 -43 -75 -58 0 -13 65 -28 113 -25 62 3 139 59
108 78 -17 11 -116 14 -146 5z"/>
<path d="M1993 409 c-13 -5 -23 -12 -23 -17 0 -31 97 -77 147 -69 48 8 83 19
83 26 -1 12 -26 38 -50 51 -29 16 -125 21 -157 9z"/>
</g>
</svg>
